<svg xmlns="http://www.w3.org/2000/svg" width="264.418" height="464.143" viewBox="0 0 264.418 464.143"><defs><style>.a{fill:#48c6c6;fill-rule:evenodd;opacity:0.2;}</style></defs><path class="a" d="M0,108.43a5.382,5.382,0,0,1,1.988,1.99A5.43,5.43,0,0,1,0,117.838H0V108.43ZM22.556,92.273a5.431,5.431,0,1,1-1.988,7.42,5.433,5.433,0,0,1,1.988-7.42ZM50.543,76.116a5.431,5.431,0,1,1-1.986,7.418,5.431,5.431,0,0,1,1.986-7.418ZM78.532,59.956a5.431,5.431,0,1,1-1.988,7.418,5.431,5.431,0,0,1,1.988-7.418Zm-67.8,76.462a5.431,5.431,0,1,1-1.988,7.418,5.429,5.429,0,0,1,1.988-7.418Zm27.987-16.159a5.431,5.431,0,1,1-1.988,7.418,5.43,5.43,0,0,1,1.988-7.418ZM66.7,104.1a5.431,5.431,0,1,1-1.988,7.418A5.428,5.428,0,0,1,66.7,104.1ZM94.689,87.943a5.431,5.431,0,1,1-1.988,7.42,5.43,5.43,0,0,1,1.988-7.42ZM0,180.081a5.432,5.432,0,1,1,0,10.371V180.081Zm26.886-15.676a5.431,5.431,0,1,1-1.988,7.418,5.431,5.431,0,0,1,1.988-7.418Zm27.987-16.159a5.431,5.431,0,1,1-1.986,7.42,5.434,5.434,0,0,1,1.986-7.42Zm27.989-16.157a5.431,5.431,0,1,1-1.988,7.418,5.429,5.429,0,0,1,1.988-7.418Zm27.987-16.159a5.431,5.431,0,1,1-1.988,7.418,5.431,5.431,0,0,1,1.988-7.418ZM15.058,208.549a5.432,5.432,0,1,1-1.988,7.42,5.433,5.433,0,0,1,1.988-7.42Zm27.987-16.157a5.431,5.431,0,1,1-1.988,7.418,5.43,5.43,0,0,1,1.988-7.418Zm27.987-16.159a5.431,5.431,0,1,1-1.988,7.42,5.43,5.43,0,0,1,1.988-7.42Zm27.987-16.157a5.431,5.431,0,1,1-1.988,7.418,5.431,5.431,0,0,1,1.988-7.418Zm27.987-16.159a5.431,5.431,0,1,1-1.988,7.418,5.432,5.432,0,0,1,1.988-7.418ZM3.229,252.695a5.431,5.431,0,1,1-1.988,7.418,5.43,5.43,0,0,1,1.988-7.418Zm27.987-16.159a5.432,5.432,0,1,1-1.988,7.42,5.435,5.435,0,0,1,1.988-7.42ZM59.2,220.378a5.431,5.431,0,1,1-1.988,7.418,5.431,5.431,0,0,1,1.988-7.418Zm27.987-16.157a5.431,5.431,0,1,1-1.99,7.418,5.43,5.43,0,0,1,1.99-7.418Zm27.985-16.159a5.431,5.431,0,1,1-1.986,7.418,5.431,5.431,0,0,1,1.986-7.418ZM143.164,171.9a5.432,5.432,0,1,1-1.988,7.42,5.433,5.433,0,0,1,1.988-7.42ZM19.388,280.681A5.431,5.431,0,1,1,17.4,288.1a5.431,5.431,0,0,1,1.988-7.418Zm27.987-16.157a5.431,5.431,0,1,1-1.988,7.418,5.43,5.43,0,0,1,1.988-7.418Zm27.987-16.159a5.431,5.431,0,1,1-1.988,7.418,5.431,5.431,0,0,1,1.988-7.418Zm27.987-16.159a5.432,5.432,0,1,1-1.988,7.42,5.431,5.431,0,0,1,1.988-7.42Zm27.987-16.157a5.431,5.431,0,1,1-1.988,7.418,5.433,5.433,0,0,1,1.988-7.418Zm27.987-16.157a5.431,5.431,0,1,1-1.988,7.418,5.432,5.432,0,0,1,1.988-7.418ZM7.559,324.827a5.431,5.431,0,1,1-1.988,7.418,5.431,5.431,0,0,1,1.988-7.418Zm27.987-16.159a5.431,5.431,0,1,1-1.988,7.42,5.434,5.434,0,0,1,1.988-7.42Zm27.987-16.157a5.431,5.431,0,1,1-1.988,7.418,5.431,5.431,0,0,1,1.988-7.418Zm27.987-16.159a5.431,5.431,0,1,1-1.988,7.418,5.433,5.433,0,0,1,1.988-7.418Zm27.989-16.157a5.431,5.431,0,1,1-1.988,7.418,5.429,5.429,0,0,1,1.988-7.418Zm27.987-16.159a5.431,5.431,0,1,1-1.988,7.418,5.431,5.431,0,0,1,1.988-7.418Zm27.987-16.157a5.431,5.431,0,1,1-1.988,7.418,5.43,5.43,0,0,1,1.988-7.418ZM0,368.471a5.417,5.417,0,0,1,3.149,2.488,5.434,5.434,0,0,1-1.988,7.42,5.484,5.484,0,0,1-1.161.5V368.471Zm23.718-15.657a5.431,5.431,0,1,1-1.988,7.418,5.431,5.431,0,0,1,1.988-7.418ZM51.7,336.655a5.431,5.431,0,1,1-1.988,7.42,5.43,5.43,0,0,1,1.988-7.42ZM79.691,320.5a5.431,5.431,0,1,1-1.988,7.418,5.429,5.429,0,0,1,1.988-7.418Zm27.987-16.159a5.431,5.431,0,1,1-1.988,7.418,5.432,5.432,0,0,1,1.988-7.418Zm27.987-16.157a5.431,5.431,0,1,1-1.988,7.418,5.43,5.43,0,0,1,1.988-7.418Zm27.987-16.159a5.431,5.431,0,1,1-1.988,7.418,5.43,5.43,0,0,1,1.988-7.418Zm27.987-16.159a5.432,5.432,0,1,1-1.988,7.42,5.433,5.433,0,0,1,1.988-7.42ZM11.888,396.958a5.431,5.431,0,1,1-1.988,7.42,5.432,5.432,0,0,1,1.988-7.42ZM39.875,380.8a5.431,5.431,0,1,1-1.988,7.418,5.433,5.433,0,0,1,1.988-7.418Zm27.987-16.159a5.432,5.432,0,1,1-1.988,7.418,5.434,5.434,0,0,1,1.988-7.418Zm27.987-16.157A5.431,5.431,0,1,1,93.86,355.9a5.431,5.431,0,0,1,1.988-7.418Zm27.987-16.159a5.432,5.432,0,1,1-1.986,7.42,5.433,5.433,0,0,1,1.986-7.42Zm27.989-16.157a5.431,5.431,0,1,1-1.988,7.418,5.429,5.429,0,0,1,1.988-7.418Zm27.987-16.159a5.431,5.431,0,1,1-1.988,7.42,5.432,5.432,0,0,1,1.988-7.42ZM207.8,283.852a5.431,5.431,0,1,1-1.988,7.418,5.429,5.429,0,0,1,1.988-7.418ZM.061,441.1A5.431,5.431,0,1,1,0,450.476v-9.337l.061-.036Zm27.987-16.159a5.432,5.432,0,1,1-1.988,7.42,5.432,5.432,0,0,1,1.988-7.42Zm27.987-16.157a5.431,5.431,0,1,1-1.988,7.418,5.429,5.429,0,0,1,1.988-7.418Zm27.987-16.159a5.432,5.432,0,1,1-1.988,7.42,5.432,5.432,0,0,1,1.988-7.42Zm27.987-16.157a5.431,5.431,0,1,1-1.988,7.418,5.43,5.43,0,0,1,1.988-7.418Zm27.987-16.157a5.431,5.431,0,1,1-1.988,7.418,5.43,5.43,0,0,1,1.988-7.418Zm27.987-16.159a5.431,5.431,0,1,1-1.988,7.418,5.433,5.433,0,0,1,1.988-7.418ZM195.967,328a5.431,5.431,0,1,1-1.988,7.42,5.433,5.433,0,0,1,1.988-7.42Zm27.987-16.157a5.431,5.431,0,1,1-1.988,7.418,5.431,5.431,0,0,1,1.988-7.418ZM16.218,469.09a5.431,5.431,0,1,1-1.988,7.42,5.433,5.433,0,0,1,1.988-7.42ZM44.2,452.933a5.431,5.431,0,1,1-1.988,7.418,5.428,5.428,0,0,1,1.988-7.418Zm27.987-16.159a5.431,5.431,0,1,1-1.988,7.418,5.43,5.43,0,0,1,1.988-7.418Zm27.987-16.157a5.431,5.431,0,1,1-1.988,7.418,5.432,5.432,0,0,1,1.988-7.418Zm27.989-16.159a5.431,5.431,0,1,1-1.988,7.418,5.431,5.431,0,0,1,1.988-7.418ZM156.153,388.3a5.432,5.432,0,1,1-1.988,7.42,5.433,5.433,0,0,1,1.988-7.42Zm27.987-16.157a5.431,5.431,0,1,1-1.988,7.418,5.431,5.431,0,0,1,1.988-7.418Zm27.987-16.159a5.432,5.432,0,1,1-1.988,7.418,5.432,5.432,0,0,1,1.988-7.418Zm27.987-16.157a5.431,5.431,0,1,1-1.988,7.418,5.429,5.429,0,0,1,1.988-7.418ZM4.388,513.236A5.431,5.431,0,1,1,2.4,520.654a5.433,5.433,0,0,1,1.986-7.418Zm27.989-16.159a5.432,5.432,0,1,1-1.988,7.42,5.431,5.431,0,0,1,1.988-7.42ZM60.364,480.92a5.431,5.431,0,1,1-1.988,7.418,5.429,5.429,0,0,1,1.988-7.418ZM88.35,464.76a5.431,5.431,0,1,1-1.988,7.42,5.431,5.431,0,0,1,1.988-7.42ZM116.337,448.6a5.431,5.431,0,1,1-1.988,7.418,5.43,5.43,0,0,1,1.988-7.418Zm27.987-16.159a5.431,5.431,0,1,1-1.988,7.418,5.43,5.43,0,0,1,1.988-7.418Zm27.987-16.159a5.432,5.432,0,1,1-1.988,7.42,5.432,5.432,0,0,1,1.988-7.42ZM200.3,400.128a5.431,5.431,0,1,1-1.988,7.418,5.431,5.431,0,0,1,1.988-7.418Zm27.987-16.159a5.432,5.432,0,1,1-1.988,7.42,5.434,5.434,0,0,1,1.988-7.42Zm27.987-16.157a5.431,5.431,0,1,1-1.988,7.418A5.433,5.433,0,0,1,256.27,367.812Z" transform="translate(0 -59.228)"/></svg>