<svg xmlns="http://www.w3.org/2000/svg" width="395" height="560.117" viewBox="0 0 395 560.117">
  <path id="background_splat" data-name="background splat" d="M19.839,272.543a39.664,39.664,0,0,0,39.663,68.7,39.663,39.663,0,1,1,39.663,68.7l-57.48,33.186a39.664,39.664,0,0,0,39.663,68.7l207.1-119.571a39.671,39.671,0,0,1,48.481,61.8L284.568,486.1a39.664,39.664,0,1,0,39.663,68.7L395,513.937V0H174.589L27.968,84.652a39.664,39.664,0,0,0,39.663,68.7L172.951,92.545a39.664,39.664,0,0,1,39.663,68.7Z" transform="translate(395 560.117) rotate(180)" fill="#502fcc" fill-rule="evenodd"/>
</svg>
