<svg xmlns="http://www.w3.org/2000/svg" width="778.117" height="759.73" viewBox="0 0 778.117 759.73">
  <path id="splat" d="M311.368,659.024c15.825,19.788,39.465,31.951,63.713,39.331,106.016,32.28,227.2-17.269,328.716,27.2,46.684,20.452,88.6,49.415,133.7,73.161,148.854,78.373,270.4-102.287,224.83-196.686-42.475-87.989-79.232-58.591-80.86-146.479-1.243-67.18,49.922-74.75,71.612-138.346,28.083-82.331-11.695-192.288-86.707-236.341s-183.2-22.135-231.229,50.4c-15.095,22.8-25.078,50.051-46.639,66.863-38.044,29.66-92.3,14.454-140.2,8.69a314.786,314.786,0,0,0-101.071,4.242c-35.24,7.274-72.6,23.785-86.7,56.89-12.079,28.362-3.718,61.166,8.261,89.572s27.67,56.171,30.374,86.891c5.34,60.787-39.042,61.757-74.232,90.709C290.091,563.789,283.234,623.845,311.368,659.024Z" transform="translate(-293.917 -58.197)" fill="#304883"/>
</svg>
